<svg width="222" height="222" viewBox="0 0 222 222" fill="none" xmlns="http://www.w3.org/2000/svg">
<g clip-path="url(#clip0_5_17)">
<rect width="222" height="222" fill="white"/>
<rect y="-3" width="222" height="222" fill="#F7C026"/>
<path d="M112.5 25.0003C148.659 26.7317 167.94 45.1023 165.5 74.0003C160.212 136.625 197.348 181.456 230.5 209.5L238.5 258.5H-6L-9 209.5C21.0519 185.601 53.5 160.5 53.5 74.0003C57 40.5003 73.1276 24.9264 112.5 25.0003Z" fill="black"/>
<path d="M93.1297 64C111.13 67 115.63 88.5 105.63 106.5L81.1297 108C67.1298 90.5 75.1296 64 93.1297 64Z" fill="white"/>
<path d="M133.714 64C115.714 67 111.214 88.5 121.214 106.5L145.714 108C159.714 90.5 151.714 64 133.714 64Z" fill="white"/>
<circle cx="94" cy="94" r="8" fill="black"/>
<circle cx="131" cy="94" r="8" fill="black"/>
<path d="M79.3786 113.61C104.211 110.53 118.359 110.374 143.879 112.11C166.937 116.376 163.016 125.904 139.879 143.61C114.387 163.118 111.389 164.992 82.8786 143.61C61.0857 122.96 60.9125 116.652 79.3786 113.61Z" fill="#F7C026"/>
<path d="M199 243C199 304.027 159.601 353.5 111 353.5C62.3989 353.5 23 304.027 23 243C27.3913 186.169 40.7169 164.396 77.5 144C85.9388 151.409 91.1121 154.76 101 159.5C110 163.814 114.086 163.913 123 159.5L145.5 144C182.835 165.712 194.811 188.312 199 243Z" fill="white"/>
</g>
<defs>
<clipPath id="clip0_5_17">
<rect width="222" height="222" fill="white"/>
</clipPath>
</defs>
</svg>
